<?xml version="1.0" encoding="UTF-8"?>
<svg width="94px" height="116px" viewBox="0 0 94 116" version="1.1" xmlns="http://www.w3.org/2000/svg" xmlns:xlink="http://www.w3.org/1999/xlink">
    <!-- Generator: Sketch 52.3 (67297) - http://www.bohemiancoding.com/sketch -->
    <title>Icon_Language</title>
    <desc>Created with Sketch.</desc>
    <g id="Icon_Language" stroke="none" stroke-width="1" fill="none" fill-rule="evenodd">
        <g id="Group-6" fill="#FFFFFF">
            <g id="Group-5">
                <path d="M55.9010629,76.4225482 C55.9216497,76.1817306 55.9422364,75.940913 55.9628232,75.6995947 C49.8637496,71.2837707 49.0343972,71.231702 45.7115956,75.497328 C49.3005546,75.8232578 52.6008088,76.1226527 55.9010629,76.4225482 M51.9631093,10.6142534 C57.5867267,15.7495263 58.6699825,15.832636 62.2388449,11.5229519 C58.5949879,11.2010273 55.2790486,10.9076404 51.9631093,10.6142534 M22.1446538,37.7059848 C22.3510116,37.8261433 22.5578595,37.9458011 22.7642173,38.0654589 C23.9224678,37.3435067 25.1444392,36.7056655 26.2100493,35.8620528 C26.6864858,35.484555 27.1560601,34.6624707 27.1006719,34.0967245 C26.9021567,32.0775615 26.477187,30.0814287 26.1375055,28.0772855 L25.4311834,27.9451112 C24.3356736,31.1989026 23.2401637,34.4521934 22.1446538,37.7059848 M81.7472535,58.816828 C82.0158617,58.8693973 82.2849601,58.921466 82.5535684,58.9735347 C83.6201588,55.7688079 84.6867491,52.5640812 85.9097009,48.8882331 C80.6017472,51.0165402 80.4904806,51.2087937 81.2791497,55.9280179 C81.4404127,56.8902871 81.5913823,57.8540582 81.7472535,58.816828 M83.0393179,28.6079854 C79.4763375,30.9746068 76.5976218,32.8866285 73.7605698,34.7716147 C75.4457434,38.3137864 76.9515181,41.4779597 78.506799,44.7452689 C80.7203662,43.3038679 82.7486525,42.0762488 84.6583198,40.6784051 C85.1965166,40.2848861 85.7901016,39.3000873 85.6675613,38.744855 C84.960259,35.5446342 84.0465988,32.3919761 83.0393179,28.6079854 M28.7015378,64.3245922 C31.4635951,66.7072347 33.8300925,68.8185193 36.2897205,70.8096454 C36.7553735,71.1866426 37.7763789,71.415945 38.2238959,71.1515964 C40.452658,69.8348597 42.5760356,68.3303754 44.881753,66.7958516 C42.5025114,63.8744986 40.2909049,61.1584163 37.9239173,58.2510818 C35.0319673,60.1555937 32.184622,62.0305666 28.7015378,64.3245922 M69.9897611,28.7521756 C72.9861154,26.7815766 75.8442443,24.9025984 79.2621371,22.6546335 C76.4059689,20.2519646 73.8811494,18.0851067 71.2930993,15.9988552 C70.9377325,15.7119768 70.1274964,15.5788012 69.7750706,15.7945858 C67.5061152,17.1814149 65.3057824,18.6853985 63.0226124,20.1908841 C65.4312636,23.1512886 67.6110097,25.8293206 69.9897611,28.7521756 M29.4353088,42.2529819 C27.1947828,43.7053975 25.1812013,44.954545 23.2386932,46.3098325 C22.7686288,46.637765 22.1559275,47.401272 22.2480778,47.8178214 C22.9994946,51.2253155 23.9023712,54.5987648 24.8630868,58.3927687 C28.4692014,56.0181368 31.3724252,54.106115 34.1830084,52.2551738 C32.5419493,48.7971129 31.0577418,45.6709899 29.4353088,42.2529819 M33.6742213,30.9886253 C39.7213378,27.0143836 45.307703,23.3425408 51.3116853,19.3963361 C47.4962719,17.1113224 44.2018997,14.8728701 39.9732806,15.0005385 C37.3631731,15.0796428 35.4338994,16.3493174 34.3540746,18.72445 C32.6306685,22.5154499 33.0664216,26.4646586 33.6742213,30.9886253 M56.7112991,67.5318222 C60.3232956,69.968536 63.6559004,72.2570544 67.727668,71.9261179 C69.5393031,71.7789238 71.8420796,70.6969968 72.8807308,69.2560964 C75.6766093,65.3754782 74.9928346,60.8510109 74.2144589,56.029652 C68.2344945,59.9593348 62.6383261,63.6366849 56.7112991,67.5318222 M64.1426303,32.5997502 C61.8427948,29.8851699 59.7713743,27.354332 57.5705513,24.9476578 C57.2838072,24.6342444 56.181435,24.717354 55.7079395,25.0222562 C49.3701575,29.1071438 43.0652163,33.2461027 36.7955667,37.4396335 C36.3166794,37.7600561 35.7662285,38.7653821 35.9279817,39.1639077 C37.1626973,42.2029158 38.5670086,45.1703296 40.0394523,48.4286269 C48.2094562,43.0635509 55.98341,37.957817 64.1426303,32.5997502 M67.913439,38.5661192 C59.6870666,43.9702468 51.9077211,49.0809873 43.7965365,54.4095152 C46.2821431,57.3719223 48.5829589,60.1140389 50.905832,62.8821898 C57.8126909,58.3562205 64.4092779,54.0785787 70.9289096,49.6822804 C71.4935751,49.3017785 71.9915787,47.9600089 71.7651243,47.3627211 C70.6867701,44.5129626 69.34716,41.76634 67.913439,38.5661192 M54.1011917,83.3717135 C32.8340853,83.6535853 15.1250578,65.7674953 14.8824281,43.7624727 C14.6437197,22.0653563 32.0365933,3.91241433 53.3360503,3.62853992 C75.1158651,3.33815694 92.7484274,20.9488838 92.9974292,43.2407847 C93.2425097,65.2247795 75.9339438,83.0828325 54.1011917,83.3717135" id="Fill-1"></path>
                <path d="M58.3852381,97.7609498 L58.3852381,102.54015 C62.7679232,103.885256 66.9820049,105.153358 71.1744449,106.486618 C72.1221477,106.788218 73.0497188,107.232967 73.8892134,107.761137 C75.5737388,108.82192 76.5103691,110.28895 75.9839235,112.347826 C75.4620075,114.389426 74.0009447,115.340626 71.96512,115.443792 C70.1245734,115.53758 68.2764774,115.49809 66.4319044,115.499077 C56.9543729,115.502533 47.4773447,115.500558 37.9998131,115.500065 C37.4124689,115.500065 36.8251247,115.512899 36.238787,115.490686 C33.9649042,115.40529 32.1218411,114.729035 31.5692242,112.24318 C31.0171105,109.763741 32.3699651,108.174294 34.4264249,107.383026 C38.1548277,105.949069 42.0004981,104.805358 45.8184872,103.604882 C46.8426908,103.283043 47.943395,103.192711 49.1387185,102.972558 L49.1387185,98.5714689 C42.7277581,96.5333243 36.3409557,95.2084562 30.5893105,92.5577328 C-1.01001064,77.9940562 -9.97166569,37.9202519 12.4339818,11.620337 C15.7225056,7.76025191 19.9099127,4.59419234 23.901035,1.36889872 C26.045068,-0.364190638 28.7220894,0.162498723 30.1846621,2.02146043 C31.6457249,3.87992851 31.307008,6.34702638 29.2968512,8.19710298 C28.748764,8.70108596 28.1266924,9.13250723 27.5136802,9.56294128 C22.6075691,13.0108562 18.6823783,17.3230945 15.4864607,22.338737 C-0.271174871,47.0654945 13.8890051,80.9769838 42.8203642,87.7341072 C55.0750727,90.5960987 66.5718202,88.8427711 77.4399534,82.553103 C78.8532032,81.7356732 81.0440425,81.4148221 82.5765731,81.8566094 C83.7220705,82.1863455 84.879647,84.02112 85.1489094,85.3568477 C85.529903,87.2449328 84.1483607,88.6986349 82.4859802,89.7322689 C76.3105614,93.5711285 69.6066837,96.0248987 62.3974988,97.1700902 C61.1583887,97.3665498 59.9142456,97.536354 58.3852381,97.7609498" id="Fill-3"></path>
            </g>
        </g>
    </g>
</svg>