<?xml version="1.0" encoding="UTF-8"?>
<svg width="70px" height="69px" viewBox="0 0 70 69" version="1.1" xmlns="http://www.w3.org/2000/svg" xmlns:xlink="http://www.w3.org/1999/xlink">
    <!-- Generator: Sketch 52.3 (67297) - http://www.bohemiancoding.com/sketch -->
    <title>Icon_Registration</title>
    <desc>Created with Sketch.</desc>
    <g id="Icon_Registration" stroke="none" stroke-width="1" fill="none" fill-rule="evenodd">
        <path d="M24.7682953,50.678075 C24.7997507,46.8188964 21.4906039,43.4951142 17.6552353,43.5335596 C13.9373874,43.5706944 10.704913,46.8099404 10.6658123,50.5373997 C10.6267115,54.2906349 13.7702808,57.5462639 17.5176181,57.6329845 C21.4486634,57.7238555 24.7364031,54.5700196 24.7682953,50.678075 M58.1760641,0.520112605 C61.1621381,3.39150572 63.5791762,5.71570677 66.6259766,8.64564179 C64.6964965,10.0078333 62.8360435,11.3215312 60.500702,12.9703159 C64.154547,16.2565265 67.1189955,18.9228045 70,21.5141576 C68.0818788,23.5172519 66.5372899,25.1302125 64.5761361,27.1783054 C61.8692283,24.1605575 59.2053531,21.1917402 56.4621842,18.1337994 C54.653283,20.0724539 53.178158,21.6535222 51.3004483,23.665791 C54.1659435,26.1295752 57.2402673,28.772917 60.4653147,31.5457937 C58.2208442,33.6843208 56.6478582,35.1826004 54.8500974,36.8956065 C52.1241853,33.9829282 49.3591724,31.0285279 46.4703041,27.9415346 C41.9835476,32.4309124 37.9308312,36.368074 34.0714342,40.4861039 C33.5467415,41.0459655 33.6633884,42.6456012 34.0318966,43.5366178 C38.4762758,54.2797129 31.9447029,66.2216064 20.5314341,68.0717927 C13.3615797,69.2341117 6.21728272,65.9358869 2.5431228,59.7677981 C-1.19569535,53.4913631 -0.780004128,45.549105 3.57896503,39.9723332 C8.2288962,34.0229027 15.6150062,31.4498986 22.5834589,33.6259974 C24.4487177,34.2085767 25.5190734,33.8769849 26.8332081,32.54887 C36.6516469,22.6264538 46.5535297,12.7866079 56.4045161,2.89608392 C57.1068005,2.19095977 57.6111784,1.28858434 58.1760641,0.520112605" fill="#FDFDFB"></path>
    </g>
</svg>